<?xml version="1.0" standalone="no"?>
<!DOCTYPE svg PUBLIC "-//W3C//DTD SVG 20010904//EN"
 "http://www.w3.org/TR/2001/REC-SVG-20010904/DTD/svg10.dtd">
<svg version="1.0" xmlns="http://www.w3.org/2000/svg"
 width="672.000000pt" height="271.000000pt" viewBox="0 0 672.000000 271.000000"
 preserveAspectRatio="xMidYMid meet">

<g transform="translate(0.000000,271.000000) scale(0.100000,-0.100000)"
fill="#000000" stroke="none">
<path d="M935 2453 c-50 -2 -85 -10 -120 -28 -27 -13 -63 -27 -80 -30 -69 -15
-159 -150 -173 -260 l-7 -60 -135 -5 -135 -5 -1 -170 0 -170 5 165 6 165 128
3 127 3 0 -60 0 -60 -39 -12 c-21 -6 -51 -23 -66 -37 -27 -24 -27 -27 -21
-101 4 -42 12 -95 18 -118 12 -49 41 -81 60 -66 7 5 21 13 31 16 15 6 17 3 12
-13 -8 -24 10 -27 19 -4 4 10 12 14 22 10 11 -4 10 1 -5 20 -28 35 -26 70 3
102 14 15 33 38 44 51 25 32 49 22 57 -22 9 -46 38 -93 67 -107 20 -10 21 -9
7 2 -14 12 -7 13 50 10 122 -6 162 41 169 205 3 76 9 106 20 115 14 12 15 1 9
-97 -6 -118 -16 -156 -50 -195 l-22 -25 24 20 c31 26 47 66 56 138 7 57 8 59
34 54 14 -3 47 -15 73 -26 44 -19 47 -22 57 -73 5 -29 14 -92 20 -141 6 -48
19 -107 29 -131 25 -55 83 -120 134 -148 l39 -22 -3 -101 -3 -100 -30 -3 c-16
-2 -95 -19 -174 -38 -174 -42 -275 -49 -297 -20 -8 11 -14 35 -14 53 l0 34
-34 -26 c-21 -16 -37 -39 -42 -58 -3 -18 -15 -44 -26 -59 -12 -17 -19 -43 -18
-70 2 -95 -7 -131 -35 -154 -23 -18 -25 -22 -9 -21 16 2 20 -8 26 -61 13 -114
54 -162 153 -177 35 -5 37 -4 15 5 -14 6 -36 21 -49 33 -24 22 -91 150 -91
174 0 22 15 14 34 -18 25 -42 74 -97 98 -110 15 -8 24 -7 36 4 24 20 216 122
326 171 50 23 116 56 147 74 70 40 104 40 157 2 40 -29 79 -86 68 -98 -4 -3
-34 4 -69 16 -39 14 -86 22 -126 22 -87 0 -72 -9 32 -20 86 -9 127 -24 127
-47 0 -7 -10 -13 -22 -13 -36 0 -234 -47 -343 -81 -110 -35 -169 -61 -202 -91
-12 -11 -37 -24 -55 -29 -28 -7 -25 -8 16 -4 27 3 69 16 93 30 23 14 63 36 87
50 43 25 275 89 285 79 12 -12 -21 -41 -99 -86 -46 -26 -80 -48 -75 -48 6 0
68 29 139 65 201 100 270 107 387 36 35 -22 66 -38 68 -36 7 8 -14 27 -72 67
-95 63 -146 107 -162 139 -15 28 -15 29 17 42 75 32 118 98 126 193 8 110 -40
201 -151 279 l-29 20 45 68 c97 146 117 312 64 510 -15 55 -27 103 -27 108 0
6 49 8 118 7 l117 -3 5 -265 6 -265 -1 270 0 270 -127 5 -127 5 -36 72 c-43
85 -108 148 -221 213 -87 49 -193 90 -232 89 -16 0 -4 -6 32 -15 110 -27 204
-80 287 -163 69 -69 79 -85 112 -171 65 -170 80 -240 81 -390 1 -128 0 -138
-27 -195 -40 -86 -70 -120 -131 -150 -52 -25 -55 -26 -85 -10 -18 9 -35 14
-39 11 -15 -9 -100 48 -131 87 -42 54 -59 115 -70 252 -6 66 -13 130 -17 143
l-7 23 59 -26 c129 -56 197 -120 241 -224 22 -53 23 -54 17 -16 -11 65 -51
140 -100 185 -25 23 -88 62 -140 87 -65 32 -99 55 -109 72 -7 15 -25 85 -40
156 -28 140 -73 252 -118 295 -15 14 -27 28 -27 33 0 4 24 7 53 7 125 0 279
-149 354 -343 l24 -62 -5 59 c-7 85 -45 154 -124 227 -37 33 -92 75 -122 92
-51 29 -53 32 -30 38 25 7 -60 8 -195 2z m-77 -71 c-1 -4 -28 -30 -57 -57
l-55 -50 23 40 23 40 -27 -25 c-25 -23 -55 -76 -55 -99 0 -15 53 -20 101 -9
55 13 106 -6 193 -72 63 -48 81 -72 106 -146 15 -42 16 -54 6 -54 -25 0 -81
28 -100 51 -16 20 -24 21 -85 16 -112 -10 -166 -32 -218 -87 -26 -28 -54 -50
-63 -50 -9 0 -27 11 -40 25 -13 14 -29 25 -37 25 -16 0 -16 -2 2 94 16 81 52
159 79 169 11 4 13 15 9 40 -4 28 0 40 27 71 18 20 47 44 64 53 52 27 111 41
104 25z m149 -39 c3 -10 12 -25 18 -33 7 -8 16 -25 20 -38 6 -22 5 -23 -32
-18 l-38 6 40 -13 c33 -10 42 -19 53 -51 7 -22 10 -41 8 -43 -6 -6 -38 11
-125 69 -69 45 -75 48 -110 38 -50 -14 -61 -13 -54 6 3 9 24 25 47 36 23 11
31 17 19 15 -13 -3 -23 -1 -23 4 0 18 58 38 113 39 46 0 59 -3 64 -17z m653
-1053 c44 -22 74 -60 95 -121 28 -79 13 -133 -20 -70 -8 17 -31 42 -51 57 -34
27 -94 116 -94 142 0 18 25 15 70 -8z m-192 -77 c-3 -55 -4 -58 -30 -61 -27
-3 -28 -2 -28 51 0 61 4 67 37 67 23 0 24 -3 21 -57z m53 31 c7 -9 43 -31 79
-49 67 -34 130 -92 130 -121 0 -12 -10 -7 -36 16 -39 34 -74 51 -144 72 -48
14 -78 51 -67 81 8 21 21 22 38 1z m48 -115 c62 -13 123 -56 141 -98 19 -48 4
-57 -61 -36 -39 13 -67 32 -106 74 -73 76 -71 81 26 60z m-554 -150 c36 -32
85 -117 85 -147 0 -23 -45 -118 -59 -127 -14 -8 -41 9 -98 62 -34 31 -44 36
-48 24 -6 -15 47 -71 67 -71 4 0 8 -7 8 -15 0 -21 -48 -19 -86 4 -61 37 -133
144 -119 179 7 20 17 14 65 -43 l43 -50 -6 41 c-4 23 -4 56 -1 73 6 31 48 81
67 81 9 0 4 -61 -9 -94 -5 -12 0 -16 18 -16 13 0 34 -7 46 -16 30 -21 28 -12
-8 26 -22 24 -30 42 -30 69 0 61 13 65 65 20z m586 12 c14 -10 42 -26 64 -36
l40 -16 -24 -20 c-34 -28 -82 -22 -98 11 -18 39 -26 80 -15 80 5 0 20 -9 33
-19z m-41 -41 c0 -5 -7 -10 -15 -10 -8 0 -15 5 -15 10 0 6 7 10 15 10 8 0 15
-4 15 -10z"/>
<path d="M898 2323 c12 -2 30 -2 40 0 9 3 -1 5 -23 4 -22 0 -30 -2 -17 -4z"/>
<path d="M938 2263 c7 -3 16 -2 19 1 4 3 -2 6 -13 5 -11 0 -14 -3 -6 -6z"/>
<path d="M1480 2108 c11 -33 26 -106 35 -162 9 -55 18 -102 21 -105 12 -12 2
103 -15 174 -19 76 -47 155 -55 155 -2 0 4 -28 14 -62z"/>
<path d="M1595 1716 c3 -11 8 -46 12 -78 3 -32 10 -61 16 -65 15 -9 2 87 -17
128 -9 19 -14 25 -11 15z"/>
<path d="M2369 1699 c-59 -9 -79 -20 -117 -63 -54 -62 -51 -163 7 -228 15 -17
77 -55 142 -87 126 -62 159 -95 159 -160 0 -77 -58 -128 -160 -141 -51 -7 -52
-7 -14 -9 86 -2 187 48 219 109 8 16 15 55 15 87 0 95 -44 146 -170 198 -128
52 -179 108 -167 183 11 64 65 102 147 102 77 0 150 -42 150 -87 0 -18 -27
-16 -34 2 -8 22 -63 19 -76 -4 -25 -47 3 -91 58 -91 81 0 82 127 1 171 -32 17
-110 25 -160 18z"/>
<path d="M2806 1694 c-34 -33 -9 -94 38 -94 28 0 56 29 56 57 0 44 -63 69 -94
37z"/>
<path d="M3732 1697 c-44 -14 -92 -70 -92 -108 0 -34 38 -79 67 -79 33 0 63
29 63 60 0 55 -50 78 -85 40 -28 -31 -44 -7 -19 27 48 65 192 80 278 29 78
-46 114 -167 103 -351 -10 -152 -31 -203 -101 -246 -51 -31 0 -24 65 9 109 55
154 154 147 331 -3 95 -7 112 -33 159 -34 63 -87 103 -165 126 -60 18 -177 20
-228 3z"/>
<path d="M813 1643 c9 -2 23 -2 30 0 6 3 -1 5 -18 5 -16 0 -22 -2 -12 -5z"/>
<path d="M635 1630 c3 -5 13 -10 21 -10 8 0 12 5 9 10 -3 6 -13 10 -21 10 -8
0 -12 -4 -9 -10z"/>
<path d="M580 1514 c0 -8 -5 -12 -11 -9 -11 7 -6 -47 11 -115 9 -33 9 -32 7
14 -2 47 -1 50 28 58 17 5 57 6 90 2 l60 -6 -55 36 c-61 39 -130 50 -130 20z"/>
<path d="M4508 1513 c7 -3 16 -2 19 1 4 3 -2 6 -13 5 -11 0 -14 -3 -6 -6z"/>
<path d="M3090 1482 c-16 -17 -30 -36 -30 -43 0 -8 7 -3 16 9 35 50 67 23 123
-103 32 -71 38 -93 30 -113 -8 -22 -8 -23 5 -12 13 10 21 0 57 -74 23 -50 52
-94 66 -103 32 -21 80 -21 101 1 16 17 16 18 -4 12 -13 -4 -29 0 -42 11 -26
23 -133 268 -126 288 4 8 1 15 -5 15 -6 0 -22 21 -35 48 -29 58 -53 80 -94 88
-26 5 -36 1 -62 -24z"/>
<path d="M3341 1475 c-17 -20 -31 -41 -31 -48 0 -7 6 -3 12 8 19 36 51 65 70
65 22 0 24 -16 3 -24 -25 -9 -19 -65 8 -75 49 -20 88 49 51 90 -29 32 -77 25
-113 -16z"/>
<path d="M4420 1499 c-72 -29 -120 -119 -120 -225 0 -39 7 -91 15 -115 27 -75
105 -140 167 -138 18 0 15 3 -12 12 -69 24 -105 163 -81 316 14 91 33 129 74
146 30 13 30 14 7 14 -14 0 -36 -5 -50 -10z"/>
<path d="M4568 1495 c57 -25 77 -85 77 -235 0 -147 -16 -193 -75 -222 -42 -21
-14 -24 33 -4 45 19 93 73 112 125 18 51 20 158 4 212 -23 75 -98 140 -161
139 -19 -1 -18 -3 10 -15z"/>
<path d="M4955 1502 l-40 -3 7 -87 c3 -48 7 -131 7 -184 1 -115 19 -171 62
-193 31 -17 103 -19 134 -4 15 7 12 8 -14 4 -38 -6 -73 12 -93 47 -9 16 -14
88 -18 223 l-5 200 -40 -3z"/>
<path d="M5265 1503 l-40 -4 3 -139 c2 -97 -1 -155 -11 -193 -12 -47 -13 -55
-1 -50 11 4 14 -5 14 -36 l0 -41 40 0 40 0 0 235 c0 129 -1 234 -2 233 -2 -1
-21 -3 -43 -5z"/>
<path d="M5663 1503 c9 -2 23 -2 30 0 6 3 -1 5 -18 5 -16 0 -22 -2 -12 -5z"/>
<path d="M6122 1497 c-39 -15 -86 -58 -110 -101 -13 -24 -17 -56 -17 -136 0
-93 3 -110 24 -147 31 -54 83 -90 142 -98 47 -7 123 8 135 26 4 7 -2 6 -16 -1
-14 -7 -45 -10 -78 -8 -48 4 -60 10 -84 38 -28 34 -53 119 -47 155 3 16 15 21
54 26 l50 5 -50 5 -50 4 2 55 c3 70 27 134 60 160 25 20 75 26 108 14 43 -17
62 -141 28 -183 -10 -12 -36 -28 -58 -36 l-40 -14 40 -1 c103 0 165 47 165
127 0 36 -6 50 -28 73 -47 47 -154 64 -230 37z"/>
<path d="M2804 1484 c3 -9 6 -112 6 -230 l0 -214 40 0 40 0 0 230 0 230 -46 0
c-38 0 -45 -3 -40 -16z"/>
<path d="M5519 1483 c-13 -16 -12 -17 4 -4 9 7 17 15 17 17 0 8 -8 3 -21 -13z"/>
<path d="M5738 1493 c28 -5 28 -6 -7 -62 -29 -47 -221 -356 -234 -378 -6 -10
4 -13 41 -13 40 0 51 4 54 18 3 10 64 111 137 224 72 113 131 208 131 211 0 3
-33 5 -72 5 -40 -1 -63 -3 -50 -5z"/>
<path d="M3651 1257 l4 -217 47 0 47 0 1 210 1 210 -35 0 c-19 0 -42 3 -51 7
-16 6 -17 -10 -14 -210z"/>
<path d="M5501 1435 c-2 -69 70 -103 105 -50 15 23 15 27 0 50 -20 31 -49 32
-69 3 l-15 -23 -10 25 -11 25 0 -30z"/>
<path d="M1050 1314 c-102 -33 -288 -74 -340 -75 -71 -2 -94 6 -108 34 -6 12
-11 16 -11 9 -1 -7 10 -24 24 -37 26 -27 66 -31 160 -15 53 8 70 2 86 -35 6
-14 7 -10 3 15 l-5 35 83 19 c46 10 103 28 128 41 51 27 45 30 -20 9z"/>
<path d="M2222 1213 c-12 -10 -24 -30 -27 -45 -6 -23 -4 -26 14 -21 14 3 23 0
27 -11 7 -19 54 -22 72 -4 20 20 14 65 -10 82 -29 21 -51 20 -76 -1z"/>
<path d="M5782 1168 c-28 -28 -7 -78 34 -78 12 0 25 7 28 16 4 9 13 14 21 10
22 -8 19 27 -3 47 -22 20 -63 22 -80 5z"/>
<path d="M3030 1110 c-21 -40 12 -91 58 -89 17 1 21 3 10 6 -22 6 -23 17 -2
33 8 8 14 25 12 39 -2 21 -9 27 -35 29 -24 2 -34 -2 -43 -18z"/>
<path d="M3167 1095 c-9 -19 -15 -35 -12 -35 7 0 37 61 33 66 -3 2 -12 -12
-21 -31z"/>
<path d="M5678 1023 c6 -2 18 -2 25 0 6 3 1 5 -13 5 -14 0 -19 -2 -12 -5z"/>
<path d="M620 755 c-19 -7 -28 -14 -20 -14 8 0 29 6 45 14 39 17 21 18 -25 0z"/>
<path d="M508 714 c-39 -21 -35 -28 5 -8 37 19 44 24 31 24 -5 -1 -21 -8 -36
-16z"/>
<path d="M449 673 c-13 -16 -12 -17 4 -4 16 13 21 21 13 21 -2 0 -10 -8 -17
-17z"/>
<path d="M1135 510 c-27 -7 -25 -8 18 -9 30 -1 46 3 42 9 -7 11 -16 11 -60 0z"/>
</g>
</svg>
