<?xml version="1.0" standalone="no"?>
<!DOCTYPE svg PUBLIC "-//W3C//DTD SVG 20010904//EN"
 "http://www.w3.org/TR/2001/REC-SVG-20010904/DTD/svg10.dtd">
<svg version="1.0" xmlns="http://www.w3.org/2000/svg"
 width="672.000000pt" height="271.000000pt" viewBox="0 0 672.000000 271.000000"
 preserveAspectRatio="xMidYMid meet">

<g transform="translate(0.000000,271.000000) scale(0.100000,-0.100000)"
fill="#000000" stroke="none">
<path d="M935 2453 c-50 -2 -85 -10 -120 -28 -27 -13 -63 -27 -80 -30 -69 -15
-159 -150 -173 -260 l-7 -60 -135 -5 -135 -5 -2 -25 c-3 -25 -3 -25 7 -2 9 21
14 22 135 22 l125 0 0 -59 0 -58 -43 -17 c-24 -9 -54 -26 -67 -38 -21 -20 -22
-26 -16 -97 13 -146 41 -205 85 -182 24 13 44 14 36 2 -3 -5 -1 -12 4 -15 5
-3 12 1 15 10 4 10 13 14 22 10 11 -4 10 1 -5 20 -12 15 -21 38 -21 53 1 32
82 126 102 118 8 -3 20 -25 27 -48 16 -55 35 -85 62 -100 13 -7 19 -7 15 -1
-4 7 14 11 49 11 115 0 155 50 163 206 3 77 9 108 20 117 13 12 15 1 9 -97 -3
-60 -8 -119 -12 -130 -5 -15 -4 -16 3 -5 5 8 13 41 17 74 7 56 7 58 33 53 15
-3 48 -15 74 -26 44 -19 47 -22 57 -73 5 -29 14 -92 20 -141 6 -48 19 -107 29
-131 25 -55 83 -120 133 -148 l39 -22 0 -98 c0 -93 -1 -98 -22 -102 -13 -2
-93 -21 -178 -41 -182 -44 -284 -51 -306 -21 -8 11 -14 32 -14 48 0 33 -3 34
-40 8 -18 -13 -31 -35 -39 -63 -6 -24 -18 -50 -26 -57 -10 -9 -16 -29 -15 -59
2 -99 -6 -134 -35 -157 -23 -18 -25 -22 -9 -21 16 2 20 -7 25 -48 13 -99 24
-130 41 -119 7 4 8 2 4 -5 -9 -14 12 -43 25 -35 5 3 9 1 9 -5 0 -5 21 -14 47
-19 50 -11 70 -9 32 3 -32 11 -55 39 -95 122 -39 80 -37 116 3 56 31 -47 94
-113 107 -113 5 0 23 10 40 23 35 26 317 170 356 182 14 4 55 25 93 47 78 47
115 47 173 3 35 -26 70 -82 60 -93 -4 -3 -34 4 -69 16 -39 14 -86 22 -126 22
-87 0 -72 -9 35 -20 66 -7 92 -14 108 -29 24 -24 22 -27 -24 -34 -51 -7 -193
-37 -210 -44 -8 -3 -21 -7 -29 -9 -42 -8 -101 -29 -101 -36 0 -4 -7 -5 -15 -2
-8 4 -15 2 -15 -3 0 -5 -12 -10 -26 -11 -28 -2 -112 -47 -154 -83 l-25 -21 30
7 c17 4 48 17 70 30 99 59 157 85 225 100 138 31 150 32 150 19 0 -8 -25 -30
-56 -50 -31 -20 -53 -38 -50 -41 3 -4 29 8 58 26 58 36 106 56 192 79 76 20
147 7 220 -42 28 -19 53 -33 55 -31 8 8 -14 27 -82 72 -133 89 -189 163 -134
177 34 8 86 61 108 109 23 52 24 137 3 202 -17 48 -76 117 -138 160 l-29 21
38 54 c105 154 128 311 74 510 -12 41 -23 88 -26 103 l-5 28 118 -3 119 -3 5
-225 6 -225 -1 230 0 230 -127 5 -128 5 -33 70 c-40 83 -104 145 -217 211 -84
50 -158 80 -216 88 -26 4 -19 0 23 -12 197 -59 323 -168 388 -337 55 -141 77
-239 82 -362 5 -98 3 -122 -16 -180 -31 -95 -77 -155 -145 -188 -47 -23 -58
-25 -77 -14 -13 7 -36 14 -51 15 -41 5 -100 46 -131 92 -40 57 -57 120 -67
252 -5 63 -12 125 -16 137 -6 23 -6 23 32 7 131 -54 209 -119 249 -207 18 -36
25 -45 25 -29 0 40 -49 128 -94 170 -24 22 -87 61 -140 88 -65 32 -102 57
-111 74 -7 14 -25 84 -40 155 -29 143 -69 242 -117 292 -18 18 -29 35 -26 39
4 3 26 6 51 6 122 0 285 -159 351 -342 29 -79 34 -81 24 -10 -13 95 -49 160
-131 235 -40 35 -91 75 -114 87 -47 25 -52 34 -25 41 18 5 -88 5 -203 0z m-77
-71 c-1 -4 -28 -30 -57 -57 l-55 -50 23 40 23 40 -27 -25 c-25 -23 -55 -76
-55 -99 0 -15 53 -20 101 -9 54 13 104 -6 191 -70 63 -46 83 -73 108 -148 16
-44 16 -54 5 -54 -24 0 -69 23 -93 49 -22 22 -29 23 -90 18 -113 -10 -167 -32
-219 -87 -26 -28 -54 -50 -63 -50 -9 0 -27 11 -40 25 -13 14 -29 25 -37 25
-17 0 -16 9 2 99 19 90 37 128 78 163 18 15 26 28 20 28 -24 0 -13 49 18 85
18 20 46 43 63 52 52 27 111 41 104 25z m147 -42 c0 -8 7 -22 17 -30 9 -8 19
-25 23 -38 6 -22 5 -23 -32 -18 l-38 5 38 -10 c20 -6 41 -18 46 -28 14 -27 22
-71 13 -71 -8 0 -158 91 -178 109 -7 6 -29 5 -58 -1 -74 -16 -75 9 -2 44 22
11 31 17 19 15 -32 -7 -29 9 5 28 37 20 147 17 147 -5z m669 -1058 c47 -32 86
-103 93 -167 6 -53 -9 -60 -32 -15 -8 16 -34 44 -56 62 -37 29 -89 110 -89
138 0 19 45 10 84 -18z m-206 -70 c-3 -54 -4 -57 -30 -60 -27 -3 -28 -2 -28
51 0 62 0 62 35 65 26 2 26 1 23 -56z m53 32 c7 -9 43 -31 79 -49 67 -34 130
-93 130 -122 0 -13 -2 -14 -17 -2 -10 8 -20 16 -23 19 -29 29 -60 46 -117 65
-71 23 -103 54 -90 88 8 21 21 22 38 1z m103 -134 c43 -18 80 -55 92 -92 11
-35 -10 -42 -67 -23 -39 13 -67 32 -106 74 -29 30 -53 59 -53 64 0 13 84 -1
134 -23z m-584 -157 c22 -25 39 -48 38 -52 -1 -3 4 -19 11 -36 9 -22 10 -39 2
-65 -14 -47 -48 -100 -63 -100 -7 0 -33 18 -57 40 -24 22 -48 37 -53 34 -5 -3
-8 -2 -7 3 1 4 1 15 0 23 -1 11 -4 10 -13 -4 -9 -17 -6 -24 23 -48 18 -15 37
-28 41 -28 4 0 8 -7 8 -15 0 -8 -9 -15 -20 -15 -40 0 -86 28 -128 77 -52 62
-66 97 -51 125 10 19 12 19 31 -13 11 -19 31 -43 43 -55 l22 -21 -1 58 c-1 65
15 102 51 118 26 12 26 12 19 -28 -3 -21 -9 -46 -12 -55 -5 -12 0 -16 18 -16
13 0 34 -7 46 -16 12 -8 22 -10 22 -5 0 6 -5 11 -10 11 -28 0 -65 111 -44 132
12 13 47 -7 84 -49z m593 22 c31 -16 57 -36 57 -43 0 -7 -15 -19 -32 -27 -51
-21 -73 -2 -94 82 -8 29 -9 29 69 -12z m-78 -25 c3 -5 -1 -10 -9 -10 -9 0 -16
5 -16 10 0 6 4 10 9 10 6 0 13 -4 16 -10z"/>
<path d="M893 2323 c9 -2 25 -2 35 0 9 3 1 5 -18 5 -19 0 -27 -2 -17 -5z"/>
<path d="M1475 2140 c3 -14 15 -70 26 -125 11 -55 23 -118 28 -140 l9 -40 1
47 c1 59 -22 170 -49 234 -11 27 -18 38 -15 24z"/>
<path d="M283 1940 c0 -41 2 -58 4 -37 2 20 2 54 0 75 -2 20 -4 3 -4 -38z"/>
<path d="M966 1712 l-19 -27 24 22 c12 12 21 24 18 27 -2 2 -13 -8 -23 -22z"/>
<path d="M1600 1689 c6 -18 10 -53 10 -76 0 -24 5 -43 10 -43 20 0 4 120 -19
143 -8 8 -8 1 -1 -24z"/>
<path d="M2369 1699 c-59 -9 -79 -20 -117 -63 -54 -62 -51 -163 7 -228 15 -17
77 -55 142 -87 86 -42 119 -64 137 -90 29 -44 29 -98 -1 -142 -27 -40 -62 -59
-131 -69 -44 -6 -46 -8 -15 -9 85 -3 189 52 215 115 8 18 14 57 14 86 0 89
-47 142 -170 193 -128 52 -179 108 -167 183 11 64 65 102 147 102 77 0 150
-42 150 -87 0 -18 -27 -16 -34 2 -8 22 -63 19 -76 -4 -25 -47 3 -91 58 -91 81
0 82 127 1 171 -32 17 -110 25 -160 18z"/>
<path d="M2806 1694 c-34 -33 -9 -94 38 -94 28 0 56 29 56 57 0 44 -63 69 -94
37z"/>
<path d="M3732 1697 c-44 -14 -92 -70 -92 -108 0 -43 42 -83 78 -74 39 10 52
24 52 56 0 54 -51 77 -85 39 -26 -29 -43 -9 -21 24 27 42 73 60 156 60 135 1
198 -58 222 -210 11 -75 5 -247 -12 -305 -13 -45 -44 -85 -84 -110 -51 -31 0
-24 65 9 109 55 154 156 147 330 -3 96 -7 113 -33 160 -34 63 -87 103 -165
126 -60 18 -177 20 -228 3z"/>
<path d="M818 1643 c6 -2 18 -2 25 0 6 3 1 5 -13 5 -14 0 -19 -2 -12 -5z"/>
<path d="M635 1630 c3 -5 13 -10 21 -10 8 0 12 5 9 10 -3 6 -13 10 -21 10 -8
0 -12 -4 -9 -10z"/>
<path d="M1932 1580 c0 -14 2 -19 5 -12 2 6 2 18 0 25 -3 6 -5 1 -5 -13z"/>
<path d="M580 1514 c0 -8 -5 -12 -11 -9 -11 7 -6 -47 11 -115 9 -33 9 -32 7
14 -2 47 -1 50 28 58 17 5 57 6 90 2 l60 -6 -55 36 c-61 39 -130 50 -130 20z"/>
<path d="M4447 1506 c-59 -16 -93 -46 -123 -111 -29 -60 -32 -168 -9 -236 26
-74 107 -140 169 -138 15 0 10 4 -14 12 -69 24 -105 163 -81 318 15 95 36 130
88 148 62 22 110 1 141 -60 42 -86 40 -298 -5 -367 -8 -13 -29 -30 -46 -37
-20 -9 -25 -14 -14 -15 31 0 81 26 114 61 43 46 63 107 63 193 0 125 -59 212
-160 235 -56 13 -63 13 -123 -3z"/>
<path d="M3090 1482 c-16 -17 -30 -36 -30 -43 0 -8 7 -3 16 9 18 27 45 28 67
4 9 -10 35 -59 57 -110 32 -73 39 -96 30 -111 -15 -28 -12 -38 4 -16 13 18 17
13 55 -66 44 -93 54 -106 98 -118 30 -9 73 2 73 18 0 6 -7 8 -15 5 -8 -4 -24
4 -36 17 -29 34 -130 265 -123 284 4 8 1 15 -5 15 -6 0 -22 21 -35 48 -29 58
-53 80 -94 88 -26 5 -36 1 -62 -24z"/>
<path d="M3393 1503 c17 -4 17 -6 2 -23 -10 -11 -15 -30 -13 -47 2 -22 9 -29
31 -31 36 -4 57 13 57 48 0 35 -29 60 -66 59 -18 -1 -22 -3 -11 -6z"/>
<path d="M4958 1502 l-37 -3 6 -187 c7 -257 24 -292 136 -292 23 0 49 5 57 11
12 8 10 9 -8 4 -13 -4 -37 -1 -53 5 -48 20 -60 82 -58 288 1 95 0 174 -2 175
-2 1 -21 1 -41 -1z"/>
<path d="M5265 1503 l-40 -4 3 -139 c2 -97 -1 -155 -11 -193 -12 -47 -13 -55
-1 -50 11 4 14 -5 14 -36 l0 -41 40 0 40 0 0 235 c0 129 -1 234 -2 233 -2 -1
-21 -3 -43 -5z"/>
<path d="M5545 1500 c-3 -6 1 -7 9 -4 18 7 21 14 7 14 -6 0 -13 -4 -16 -10z"/>
<path d="M5663 1503 c9 -2 23 -2 30 0 6 3 -1 5 -18 5 -16 0 -22 -2 -12 -5z"/>
<path d="M6132 1500 c-46 -11 -108 -74 -127 -128 -20 -59 -19 -166 1 -225 22
-66 89 -123 153 -132 38 -5 131 7 131 18 0 1 -31 2 -69 2 -60 0 -73 3 -95 24
-27 26 -56 104 -56 153 0 20 6 31 22 37 l22 8 -23 6 c-22 5 -23 9 -16 69 8 71
34 129 67 152 23 16 73 21 103 10 43 -17 62 -141 28 -183 -10 -12 -36 -28 -58
-36 l-40 -14 40 -1 c103 0 165 47 165 127 0 36 -6 50 -28 73 -45 45 -133 61
-220 40z"/>
<path d="M2804 1484 c3 -9 6 -112 6 -230 l0 -214 40 0 40 0 0 230 0 230 -46 0
c-38 0 -45 -3 -40 -16z"/>
<path d="M3348 1483 c-18 -21 -31 -43 -25 -43 2 0 13 14 25 30 25 33 24 41 0
13z"/>
<path d="M5738 1493 c28 -5 26 -12 -24 -90 -21 -32 -79 -127 -131 -210 l-93
-153 48 0 c45 1 48 3 67 41 11 22 73 122 138 223 64 101 117 186 117 189 0 3
-33 5 -72 5 -40 -1 -63 -3 -50 -5z"/>
<path d="M3652 1256 l3 -216 47 0 47 0 1 210 1 210 -35 0 c-19 0 -42 3 -51 6
-16 6 -17 -10 -13 -210z"/>
<path d="M5501 1435 c-1 -17 6 -41 15 -53 36 -52 124 1 90 53 -19 29 -47 31
-67 4 l-18 -24 -10 25 c-10 25 -10 25 -10 -5z"/>
<path d="M3305 1419 c-4 -6 -5 -12 -2 -15 2 -3 7 2 10 11 7 17 1 20 -8 4z"/>
<path d="M1055 1316 c-54 -23 -289 -76 -346 -77 -70 -2 -93 6 -107 34 -6 12
-11 16 -11 9 -1 -7 10 -24 24 -37 26 -27 67 -31 160 -15 40 6 54 5 68 -8 15
-14 17 -13 17 4 0 16 14 22 83 38 74 16 157 49 157 61 0 8 -13 5 -45 -9z"/>
<path d="M6133 1253 c9 -2 23 -2 30 0 6 3 -1 5 -18 5 -16 0 -22 -2 -12 -5z"/>
<path d="M2215 1205 c-31 -30 -34 -65 -5 -58 12 3 22 -1 26 -11 7 -19 54 -22
72 -4 20 20 14 65 -10 82 -32 22 -55 20 -83 -9z"/>
<path d="M5778 1154 c-8 -18 -9 -30 -1 -42 14 -24 52 -27 67 -6 7 9 18 14 24
10 20 -12 14 29 -6 47 -29 26 -70 22 -84 -9z"/>
<path d="M3030 1104 c-13 -34 -13 -37 10 -62 13 -13 32 -22 48 -21 17 1 20 3
10 6 -23 6 -23 15 2 36 24 20 25 31 4 51 -25 25 -63 20 -74 -10z"/>
<path d="M3167 1095 c-9 -19 -15 -35 -12 -35 7 0 37 61 33 66 -3 2 -12 -12
-21 -31z"/>
<path d="M5678 1023 c6 -2 18 -2 25 0 6 3 1 5 -13 5 -14 0 -19 -2 -12 -5z"/>
<path d="M670 770 c-9 -6 -10 -10 -3 -10 6 0 15 5 18 10 8 12 4 12 -15 0z"/>
<path d="M598 743 c7 -3 16 -2 19 1 4 3 -2 6 -13 5 -11 0 -14 -3 -6 -6z"/>
<path d="M495 707 c-38 -22 -85 -61 -85 -69 0 -4 14 4 31 19 17 16 45 36 62
45 18 9 28 17 22 17 -5 0 -19 -5 -30 -12z"/>
<path d="M1285 570 c-3 -6 1 -7 9 -4 18 7 21 14 7 14 -6 0 -13 -4 -16 -10z"/>
<path d="M958 533 c7 -3 16 -2 19 1 4 3 -2 6 -13 5 -11 0 -14 -3 -6 -6z"/>
<path d="M1145 510 c-17 -7 -15 -9 12 -9 17 -1 34 3 37 7 6 11 -24 12 -49 2z"/>
</g>
</svg>
